<svg width="580" height="400" xmlns="http://www.w3.org/2000/svg">
 <!-- Created with Method Draw - http://github.com/duopixel/Method-Draw/ -->

 <g>
  <title>background</title>
  <rect fill="#000" id="canvas_background" height="402" width="582" y="-1" x="-1"/>
  <g display="none" overflow="visible" y="0" x="0" height="100%" width="100%" id="canvasGrid">
   <rect fill="url(#gridpattern)" stroke-width="0" y="0" x="0" height="100%" width="100%"/>
  </g>
 </g>
 <g>
  <title>Layer 1</title>
  <g stroke="null" id="svg_37">
   <ellipse stroke="null" transform="matrix(0.39979763249019895,0,0,0.39979763249019895,-4547.985301969652,-3105.1182034664516) " id="svg_5" fill="#e6e6e6" ry="20.00677" rx="96.34841" cy="8497.695885" cx="11730.003217"/>
   <ellipse stroke="null" transform="matrix(0.39979763249019895,0,0,0.39979763249019895,-4547.985301969652,-3105.1182034664516) " id="svg_6" fill="#2f2e41" ry="31.11353" rx="33.21579" cy="8009.553725" cx="11688.403097"/>
   <path stroke="null" id="svg_7" fill="#c68642" d="m163.672702,174.574738l3.361922,4.706694s16.137228,3.361922 10.085767,8.404806s-14.79246,-4.70669 -14.79246,-4.70669l-4.706694,-6.051473l6.051465,-2.353337z"/>
   <path stroke="null" id="svg_8" fill="#794ac4" d="m146.190699,121.120163s4.3705,0 5.379077,6.051461s2.017155,26.222999 2.017155,26.222999s14.120077,18.490577 11.766732,20.843921s-5.042887,6.723849 -6.723837,6.051465s-16.137228,-20.507732 -16.137228,-20.507732l3.6981,-38.662114z"/>
   <path stroke="null" id="svg_9" fill="#c68642" d="m133.74301,103.974354s0.33619,13.111499 4.3705,13.783887s2.689539,5.042883 2.689539,5.042883s-13.111499,7.732422 -21.852503,0l-1.680961,-4.034306s6.051465,-4.3705 3.361926,-10.421965l13.111499,-4.3705z"/>
   <path stroke="null" id="svg_10" fill="#2f3336" d="m155.267892,184.660509s19.835348,36.981153 12.439116,48.411691s-18.490577,34.963998 -20.171538,34.963998s-11.094348,-4.706694 -10.421961,-7.732422s10.758154,-25.550615 13.447689,-27.56777s1.344771,-7.396232 1.008577,-7.732422s-11.430538,-18.154387 -11.430538,-18.154387s0.336194,28.240154 -1.008577,32.610653s0.336194,35.636386 -1.344767,36.981153s-9.413383,3.698128 -10.758154,1.680961s-5.379077,-32.610653 -2.689539,-39.670692l-5.042863,-48.411687l35.972556,-5.379077z"/>
   <path stroke="null" id="svg_11" fill="#2f3336" d="m137.113518,274.423853l8.404806,15.464844s12.102922,8.741 3.698128,10.085771s-13.447693,-2.017155 -13.447693,-2.017155l-7.396228,-5.379077l0,-15.464844l8.740988,-2.689539z"/>
   <path stroke="null" id="svg_12" fill="#2f3336" d="m148.544048,265.682853l-4.370504,10.421961s-1.680961,4.3705 0,5.379077s6.387651,7.060026 3.361922,7.732422a9.850214,9.850214 0 0 1 -1.847501,0.183659a18.680836,18.680836 0 0 1 -13.581393,-5.526802l-2.725492,-2.725492s9.336074,-21.498918 9.20664,-21.339514s9.956328,5.87469 9.956328,5.87469z"/>
   <circle stroke-opacity="0" stroke="#000000" transform="matrix(0.39979763249019895,0,0,0.39979763249019895,-4547.985301969652,-3105.1182034664516) " id="svg_13" fill="#c68642" r="28.590811" cy="8018.383245" cx="11686.721287"/>
   <path stroke="null" id="svg_14" fill="#794ac4" d="m117.782451,116.581569l3.530021,3.530017s10.758154,4.034306 15.801038,0c0,0 -1.849064,-3.866211 -1.849064,-3.530017s14.624366,2.52144 15.969117,8.572901s-1.008577,16.473426 -1.008577,16.473426s9.413383,44.377381 5.715267,45.385959s-38.32592,9.413383 -37.989731,3.025732s-2.689535,-32.610653 -2.689535,-32.610653l-11.766732,-22.524886s1.680961,-7.396228 5.715267,-9.749577s8.572929,-8.572901 8.572929,-8.572901z"/>
   <path stroke="null" id="svg_15" fill="#c68642" d="m132.74301,182.30716l4.3705,2.689539s16.809615,11.430538 8.068616,13.447693s-13.783887,-8.068616 -13.783887,-8.068616l-3.361922,-4.034306l4.706694,-4.03431z"/>
   <path stroke="null" id="svg_16" opacity="0.1" d="m107.864779,132.886891l-3.025732,3.025732s-2.017151,28.240154 2.017155,33.955421s22.524882,21.180115 23.53346,20.171542s7.396232,-6.051465 6.051461,-6.723849s-19.224437,-19.354395 -19.224437,-19.354395l1.406248,-26.031563l-10.758154,-5.042887z"/>
   <path stroke="null" id="svg_17" fill="#794ac4" d="m106.520007,131.878318l-3.025728,3.025728s-2.017155,28.240154 2.017155,33.955425s22.524882,21.180115 23.53346,20.171538s7.396228,-6.051461 6.051461,-6.723849s-19.224441,-19.354411 -19.224441,-19.354411l1.406248,-26.031563l-10.758154,-5.042867z"/>
   <path stroke="null" id="svg_18" fill="#2f2e41" d="m129.065619,84.376066s3.885545,-1.412925 9.184015,1.589543l-2.82585,0.706462s4.238774,0.353229 4.768622,6.004932l-1.942773,0s1.23631,4.945237 0,6.358162l-0.79477,-1.50124l-2.296006,4.592012l-0.529844,-2.296002l-1.059696,0.353233l-0.706462,-3.708923s-1.766158,2.649235 -3.179083,2.82585l0,-2.296002s-3.885541,4.415389 -5.121851,4.238774l1.766154,-2.472616l-2.472616,0.529844l1.059692,-1.766154l-6.358162,1.766146l1.412925,-1.766154l-4.415389,1.412925l-2.119387,0.883077s-3.00248,-6.888009 1.236306,-11.656632s10.420325,-5.828318 14.394174,-3.797238z"/>
   <rect stroke="null" transform="matrix(0.39979763249019895,0,0,0.39979763249019895,-4547.985301969652,-3105.1182034664516) " id="svg_19" fill="#2f3336" height="412.35762" width="643.86161" y="7934.894035" x="11855.209147"/>
   <rect stroke="null" transform="matrix(0.39979763249019895,0,0,0.39979763249019895,-4547.985301969652,-3105.1182034664516) " id="svg_20" fill="#000000" height="336.24258" width="607.03946" y="7986.613965" x="11873.620227"/>
   <rect stroke="null" transform="matrix(0.39979763249019895,0,0,0.39979763249019895,-4547.985301969652,-3105.1182034664516) " id="svg_21" fill="#794ac4" height="27.3536" width="643.86161" y="7934.529025" x="11854.934227"/>
   <circle stroke="null" transform="matrix(0.39979763249019895,0,0,0.39979763249019895,-4547.985301969652,-3105.1182034664516) " id="svg_22" fill="#fff" r="5.06978" cy="7948.513635" cx="11875.261227"/>
   <circle stroke="null" transform="matrix(0.39979763249019895,0,0,0.39979763249019895,-4547.985301969652,-3105.1182034664516) " id="svg_23" fill="#fff" r="5.06978" cy="7948.513635" cx="11894.504837"/>
   <circle stroke="null" transform="matrix(0.39979763249019895,0,0,0.39979763249019895,-4547.985301969652,-3105.1182034664516) " id="svg_24" fill="#fff" r="5.06978" cy="7948.513635" cx="11913.748447"/>
   <rect stroke="null" transform="matrix(0.39979763249019895,0,0,0.39979763249019895,-4547.985301969652,-3105.1182034664516) " id="svg_25" fill="#2f3336" height="266.46676" width="155.98054" y="8021.501865" x="11928.778077"/>
   <rect stroke="null" transform="matrix(0.39979763249019895,0,0,0.39979763249019895,-4547.985301969652,-3105.1182034664516) " id="svg_26" fill="#794ac4" height="73.34799" width="129.98379" y="8021.501865" x="12111.683837"/>
   <rect stroke="null" transform="matrix(0.39979763249019895,0,0,0.39979763249019895,-4547.985301969652,-3105.1182034664516) " id="svg_27" fill="#2f3336" height="78.91873" width="129.98379" y="8115.275885" x="12111.683837"/>
   <rect stroke="null" transform="matrix(0.39979763249019895,0,0,0.39979763249019895,-4547.985301969652,-3105.1182034664516) " id="svg_28" fill="#2f3336" height="73.34799" width="129.98379" y="8217.121901" x="12114.185103"/>
   <rect stroke="null" transform="matrix(0.39979763249019895,0,0,0.39979763249019895,-4547.985301969652,-3105.1182034664516) " id="svg_29" fill="#2f3336" height="116.12476" width="155.98054" y="8021.501865" x="12272.022553"/>
   <rect stroke="null" transform="matrix(0.39979763249019895,0,0,0.39979763249019895,-4547.985301969652,-3105.1182034664516) " id="svg_30" fill="#794ac4" height="116.12476" width="155.98054" y="8171.843875" x="12269.521287"/>
   <polygon stroke="null" id="svg_31" fill="#3f3d56" points="320.75607824185863,115.1150008438126 319.9421212064335,114.89879604532325 337.7067727751564,48.07082178436394 440.7499851518078,48.07082178436394 440.7499851518078,48.912891131054494 338.35406009620056,48.912891131054494 320.75607824185863,115.1150008438126 "/>
   <path stroke="null" id="svg_32" fill="#3f3d56" d="m449.169663,57.332459a8.840625,8.840625 0 1 1 8.840625,-8.840625a8.850688,8.850688 0 0 1 -8.840625,8.840625zm0,-16.839284a7.998663,7.998663 0 1 0 7.998659,7.998659a8.007759,8.007759 0 0 0 -7.998659,-7.998659z"/>
   <circle stroke="null" transform="matrix(0.39979763249019895,0,0,0.39979763249019895,-4547.985301969652,-3105.1182034664516) " id="svg_33" fill="#794ac4" r="8.4239" cy="7888.015795" cx="12499.210997"/>
   <polygon stroke="null" id="svg_34" fill="#3f3d56" points="372.0325006595813,251.82614552105952 268.98934244923294,251.82614552105952 268.98934244923294,250.98434700588405 371.38526750484016,250.98434700588405 388.9832493591821,184.78169563009578 389.7971522283042,184.9981441769487 372.0325006595813,251.82614552105952 "/>
   <path stroke="null" id="svg_35" fill="#3f3d56" d="m260.569667,260.245849a8.840625,8.840625 0 1 1 8.840625,-8.840625a8.850688,8.850688 0 0 1 -8.840625,8.840625zm0,-16.839284a7.998663,7.998663 0 1 0 7.998659,7.998659a8.007759,8.007759 0 0 0 -7.998659,-7.998659z"/>
   <circle stroke="null" transform="matrix(0.39979763249019895,0,0,0.39979763249019895,-4547.985301969652,-3105.1182034664516) " id="svg_36" fill="#794ac4" r="8.4239" cy="8395.556045" cx="12027.472347"/>
  </g>
 </g>
</svg>